HIERARCHY
ROOT hip
{
  OFFSET 0 0 0
  CHANNELS 6 Xposition Yposition Zposition Zrotation Yrotation Xrotation
  JOINT abdomen
  {
    OFFSET 0 20.6881 -0.73152
    CHANNELS 3 Zrotation Xrotation Yrotation
    JOINT chest
    {
      OFFSET 0 11.7043 -0.48768
      CHANNELS 3 Zrotation Xrotation Yrotation
      JOINT neck
      {
        OFFSET 0 22.1894 -2.19456
        CHANNELS 3 Zrotation Xrotation Yrotation
        JOINT head
        {
          OFFSET -0.24384 7.07133 1.2192
          CHANNELS 3 Zrotation Xrotation Yrotation
          JOINT leftEye
          {
            OFFSET 4.14528 8.04674 8.04672
            CHANNELS 3 Zrotation Xrotation Yrotation
            End Site
            {
              OFFSET 1 0 0
            }
          }
          JOINT rightEye
          {
            OFFSET -3.6576 8.04674 8.04672
            CHANNELS 3 Zrotation Xrotation Yrotation
            End Site
            {
              OFFSET 1 0 0
            }
          }
        }
      }
      JOINT rCollar
      {
        OFFSET -2.68224 19.2634 -4.8768
        CHANNELS 3 Zrotation Xrotation Yrotation
        JOINT rShldr
        {
          OFFSET -8.77824 -1.95073 1.46304
          CHANNELS 3 Zrotation Xrotation Yrotation
          JOINT rForeArm
          {
            OFFSET -28.1742 -1.7115 0.48768
            CHANNELS 3 Zrotation Xrotation Yrotation
            JOINT rHand
            {
              OFFSET -22.5879 0.773209 7.07136
              CHANNELS 3 Zrotation Xrotation Yrotation
              JOINT rThumb1
              {
                OFFSET -1.2192 -0.487915 3.41376
                CHANNELS 3 Zrotation Xrotation Yrotation
                JOINT rThumb2
                {
                  OFFSET -3.37035 -0.52449 3.41376
                  CHANNELS 3 Zrotation Xrotation Yrotation
                  End Site
                  {
                    OFFSET -1.78271 -1.18214 1.43049
                  }
                }
              }
              JOINT rIndex1
              {
                OFFSET -7.75947 0.938293 5.60832
                CHANNELS 3 Zrotation Xrotation Yrotation
                JOINT rIndex2
                {
                  OFFSET -2.54057 -0.884171 1.56538
                  CHANNELS 3 Zrotation Xrotation Yrotation
                  End Site
                  {
                    OFFSET -1.62519 -0.234802 1.16502
                  }
                }
              }
              JOINT rMid1
              {
                OFFSET -8.24714 1.18213 3.41376
                CHANNELS 3 Zrotation Xrotation Yrotation
                JOINT rMid2
                {
                  OFFSET -3.10165 -0.590103 1.0647
                  CHANNELS 3 Zrotation Xrotation Yrotation
                  End Site
                  {
                    OFFSET -2.48547 -0.328903 0.83742
                  }
                }
              }
              JOINT rRing1
              {
                OFFSET -8.82822 0.546677 1.51678
                CHANNELS 3 Zrotation Xrotation Yrotation
                JOINT rRing2
                {
                  OFFSET -2.60934 -0.819778 -0.0198488
                  CHANNELS 3 Zrotation Xrotation Yrotation
                  End Site
                  {
                    OFFSET -2.33842 -0.294052 0.168128
                  }
                }
              }
              JOINT rPinky1
              {
                OFFSET -8.27202 -0.0477905 -0.4584
                CHANNELS 3 Zrotation Xrotation Yrotation
                JOINT rPinky2
                {
                  OFFSET -1.82734 -0.647385 -0.700984
                  CHANNELS 3 Zrotation Xrotation Yrotation
                  End Site
                  {
                    OFFSET -1.69225 -0.51767 -0.607171
                  }
                }
              }
            }
          }
        }
      }
      JOINT lCollar
      {
        OFFSET 2.68224 19.2634 -4.8768
        CHANNELS 3 Zrotation Xrotation Yrotation
        JOINT lShldr
        {
          OFFSET 8.77824 -1.95073 1.46304
          CHANNELS 3 Zrotation Xrotation Yrotation
          JOINT lForeArm
          {
            OFFSET 28.1742 -1.7115 0.48768
            CHANNELS 3 Zrotation Xrotation Yrotation
            JOINT lHand
            {
              OFFSET 22.5879 0.773209 7.07136
              CHANNELS 3 Zrotation Xrotation Yrotation
              JOINT lThumb1
              {
                OFFSET 1.2192 -0.487915 3.41376
                CHANNELS 3 Zrotation Xrotation Yrotation
                JOINT lThumb2
                {
                  OFFSET 3.37035 -0.52449 3.41376
                  CHANNELS 3 Zrotation Xrotation Yrotation
                  End Site
                  {
                    OFFSET 1.78271 -1.18214 1.43049
                  }
                }
              }
              JOINT lIndex1
              {
                OFFSET 7.75947 0.938293 5.60832
                CHANNELS 3 Zrotation Xrotation Yrotation
                JOINT lIndex2
                {
                  OFFSET 2.54057 -0.884171 1.56538
                  CHANNELS 3 Zrotation Xrotation Yrotation
                  End Site
                  {
                    OFFSET 1.62519 -0.234802 1.16502
                  }
                }
              }
              JOINT lMid1
              {
                OFFSET 8.24714 1.18213 3.41376
                CHANNELS 3 Zrotation Xrotation Yrotation
                JOINT lMid2
                {
                  OFFSET 3.10165 -0.590103 1.0647
                  CHANNELS 3 Zrotation Xrotation Yrotation
                  End Site
                  {
                    OFFSET 2.48547 -0.328903 0.83742
                  }
                }
              }
              JOINT lRing1
              {
                OFFSET 8.82822 0.546677 1.51678
                CHANNELS 3 Zrotation Xrotation Yrotation
                JOINT lRing2
                {
                  OFFSET 2.60934 -0.819778 -0.0198488
                  CHANNELS 3 Zrotation Xrotation Yrotation
                  End Site
                  {
                    OFFSET 2.33842 -0.294052 0.168128
                  }
                }
              }
              JOINT lPinky1
              {
                OFFSET 8.27202 -0.0477905 -0.4584
                CHANNELS 3 Zrotation Xrotation Yrotation
                JOINT lPinky2
                {
                  OFFSET 1.82734 -0.647385 -0.700984
                  CHANNELS 3 Zrotation Xrotation Yrotation
                  End Site
                  {
                    OFFSET 1.69225 -0.51767 -0.607171
                  }
                }
              }
            }
          }
        }
      }
    }
  }
  JOINT rButtock
  {
    OFFSET -8.77824 4.35084 1.2192
    CHANNELS 3 Zrotation Xrotation Yrotation
    JOINT rThigh
    {
      OFFSET 0 -1.70687 -2.19456
      CHANNELS 3 Zrotation Xrotation Yrotation
      JOINT rShin
      {
        OFFSET 0 -36.8199 0.73152
        CHANNELS 3 Zrotation Xrotation Yrotation
        JOINT rFoot
        {
          OFFSET 0.73152 -45.1104 -5.12064
          CHANNELS 3 Zrotation Xrotation Yrotation
          End Site
          {
            OFFSET -1.1221 -3.69964 12.103
          }
        }
      }
    }
  }
  JOINT lButtock
  {
    OFFSET 8.77824 4.35084 1.2192
    CHANNELS 3 Zrotation Xrotation Yrotation
    JOINT lThigh
    {
      OFFSET 0 -1.70687 -2.19456
      CHANNELS 3 Zrotation Xrotation Yrotation
      JOINT lShin
      {
        OFFSET 0 -36.8199 0.73152
        CHANNELS 3 Zrotation Xrotation Yrotation
        JOINT lFoot
        {
          OFFSET -0.73152 -45.1104 -5.12064
          CHANNELS 3 Zrotation Xrotation Yrotation
          End Site
          {
            OFFSET 1.1221 -3.69964 12.103
          }
        }
      }
    }
  }
}
MOTION
Frames:	6
Frame Time:	0.00833333
-0.62141 84.9173 -168.554 0.0 0.0 0.0 -0.140625 -0.000295018 -0.00400525 -0.0387668 -0.000394554 -0.00671562 4.32779e-15 -1.59028e-15 9.31799e-18 1.29427e-14 3.18055e-15 3.72721e-17 -0.0 0.0 0.0 -0.0 0.0 0.0 2.13569e-15 1.16475e-18 1.49089e-16 4.7697e-14 -1.80149e-16 9.93923e-16 7.80478e-13 -2.34367e-13 -9.54166e-15 8.93081e-12 2.31236e-13 3.49861e-14 2.10649e-11 -5.13188e-15 7.31528e-14 3.637e-11 -9.54166e-15 1.25632e-13 2.107e-11 -3.57812e-15 7.31528e-14 7.73091 5.47488 0.417314 2.1066e-11 -4.87022e-15 7.31528e-14 2.90554 0.965183 0.102902 2.10762e-11 -4.57205e-15 7.55382e-14 10.2786 0.731801 0.0259123 2.10614e-11 -5.1684e-15 7.95139e-14 2.22167 -0.733487 -0.20892 2.13833e-15 7.76503e-19 -1.49089e-16 4.2587e-14 3.23025e-16 -5.96354e-16 7.81273e-13 2.35162e-13 6.36111e-15 8.92919e-12 -2.27459e-13 3.81667e-14 2.10649e-11 1.17972e-14 7.31528e-14 3.63875e-11 2.22639e-14 1.36764e-13 2.10569e-11 1.39149e-14 8.90555e-14 -7.73091 5.47488 -0.417314 2.10643e-11 1.20265e-14 6.99722e-14 -2.90554 0.965183 -0.102902 2.10556e-11 1.2424e-14 7.63333e-14 -10.2786 0.731801 -0.0259123 2.10678e-11 1.11319e-14 6.67917e-14 -2.22167 -0.733487 0.20892 -2.03217e-16 0.0 -3.88251e-19 0.415449 -2.89234 -0.0363694 -0.00657577 -0.313961 -0.0578452 -0.521682 3.20536 0.125418 2.03217e-16 0.0 3.88251e-19 -0.629356 -3.43714 0.0497312 0.00497791 0.672913 0.0432307 0.523147 2.76331 -0.116511
-0.781104 83.5908 -169.616 -1.9377 3.2477 2.1724 0.151414 0.259738 -0.486324 0.713675 -0.853941 -0.129917 1.72046 -1.63836 -1.20582 -3.37444 2.35617 -2.79336 -0.0 0.0 0.0 -0.0 0.0 0.0 -4.72509e-15 3.51786e-14 2.00307e-14 21.195 1.75935 -0.896333 -3.81701 -1.66287 6.03874 0.00179986 -0.941092 -0.132197 -1.44557e-10 4.12567e-10 -1.76677e-10 -2.50049e-10 7.13617e-10 -3.05431e-10 -1.44552e-10 4.12568e-10 -1.76679e-10 7.73091 5.47488 0.417314 -1.44555e-10 4.12567e-10 -1.76677e-10 2.90554 0.965183 0.102902 -1.44545e-10 4.12567e-10 -1.76673e-10 10.2786 0.731801 0.0259123 -1.4456e-10 4.12566e-10 -1.76667e-10 2.22167 -0.733487 -0.20892 -4.73537e-15 3.51809e-14 1.98086e-14 -21.7609 5.66113 1.02964 4.068 -1.81921 -6.38514 -0.00940808 -2.15181 0.301647 -1.93601e-10 1.55129e-11 2.19799e-10 -3.35881e-10 2.60192e-11 3.7879e-10 -1.93608e-10 1.55144e-11 2.19812e-10 -7.73091 5.47488 -0.417314 -1.93601e-10 1.55133e-11 2.19798e-10 -2.90554 0.965183 -0.102902 -1.93609e-10 1.55137e-11 2.19801e-10 -10.2786 0.731801 -0.0259123 -1.93598e-10 1.55133e-11 2.19792e-10 -2.22167 -0.733487 0.20892 -2.03217e-16 0.0 -3.88251e-19 0.780918 -4.92421 -0.760116 0.00720044 6.75302 0.0719764 -1.03782 -0.0118504 -5.93476 2.03217e-16 0.0 3.88251e-19 -0.179199 -5.82506 0.265786 -0.00235782 7.51787 -0.0638796 0.804597 0.140868 3.92611
-0.78938 83.5872 -169.625 -1.9418 3.1822 2.2134 0.457471 0.535654 -0.997291 1.51065 -1.75551 -0.260334 3.46231 -3.36949 -2.48689 -6.69247 4.82819 -5.7675 -0.0 0.0 0.0 -0.0 0.0 0.0 -1.15835e-14 7.42864e-14 4.18442e-14 43.6573 3.61445 -1.84477 -7.47285 -3.35909 12.4381 -0.00102127 -1.93529 -0.271976 -3.37032e-10 8.70552e-10 -3.74381e-10 -5.8289e-10 1.50577e-09 -6.47217e-10 -3.37027e-10 8.70553e-10 -3.74385e-10 7.73091 5.47488 0.417314 -3.37031e-10 8.70551e-10 -3.74382e-10 2.90554 0.965183 0.102902 -3.37021e-10 8.70551e-10 -3.74377e-10 10.2786 0.731801 0.0259123 -3.37035e-10 8.7055e-10 -3.74367e-10 2.22167 -0.733487 -0.20892 -1.16068e-14 7.42916e-14 4.17075e-14 -44.9932 11.6408 2.14793 7.93098 -3.66739 -13.1564 0.00534874 -4.42609 0.621908 -4.39527e-10 3.09453e-11 4.60349e-10 -7.62283e-10 5.18528e-11 7.93258e-10 -4.39532e-10 3.0946e-11 4.60359e-10 -7.73091 5.47488 -0.417314 -4.39526e-10 3.09458e-11 4.60349e-10 -2.90554 0.965183 -0.102902 -4.39533e-10 3.09462e-11 4.6035e-10 -10.2786 0.731801 -0.0259123 -4.39524e-10 3.09468e-11 4.60342e-10 -2.22167 -0.733487 0.20892 -2.03217e-16 0.0 -3.88251e-19 1.10676 -7.07223 -1.53433 -0.0139259 14.2263 0.214834 -2.31907 -3.33572 -12.3632 2.03217e-16 0.0 3.88251e-19 0.313144 -8.34979 0.498127 0.0185114 14.7519 -0.181903 1.50232 -2.6015 8.20259
-0.766991 83.5883 -169.626 -1.8342 3.1805 2.2082 0.748624 0.779582 -1.45108 2.20754 -2.56098 -0.376653 4.954 -4.90637 -3.6293 -9.43242 7.00111 -8.43633 -0.0 0.0 0.0 -0.0 0.0 0.0 -1.84466e-14 1.05534e-13 5.97938e-14 63.7508 5.27287 -2.69916 -10.4159 -4.76737 18.1736 -0.00764195 -2.82322 -0.39702 -4.758e-10 1.23771e-09 -5.30177e-10 -8.22886e-10 2.14087e-09 -9.16544e-10 -4.75794e-10 1.23771e-09 -5.30183e-10 7.73091 5.47488 0.417314 -4.75798e-10 1.23771e-09 -5.30177e-10 2.90554 0.965183 0.102902 -4.75788e-10 1.23771e-09 -5.30171e-10 10.2786 0.731801 0.0259123 -4.75802e-10 1.23771e-09 -5.3016e-10 2.22167 -0.733487 -0.20892 -1.84828e-14 1.05541e-13 5.97239e-14 -65.9163 16.9609 3.21378 11.0086 -5.18705 -19.2275 0.0401142 -6.45471 0.910072 -6.22934e-10 4.65151e-11 6.5925e-10 -1.08042e-09 7.80131e-11 1.1361e-09 -6.22936e-10 4.65153e-11 6.59259e-10 -7.73091 5.47488 -0.417314 -6.22932e-10 4.65159e-11 6.59253e-10 -2.90554 0.965183 -0.102902 -6.22938e-10 4.65162e-11 6.59252e-10 -10.2786 0.731801 -0.0259123 -6.22931e-10 4.65178e-11 6.59244e-10 -2.22167 -0.733487 0.20892 -2.03217e-16 0.0 -3.88251e-19 1.35612 -8.98256 -2.22661 -0.0664638 20.8866 0.353339 -4.08601 -6.12781 -18.1621 2.03217e-16 0.0 3.88251e-19 0.776033 -10.6003 0.706007 0.0641516 21.2075 -0.296529 2.47238 -4.99104 12.0575
-0.802051 83.5815 -169.643 -1.9669 3.1261 2.2761 0.993118 0.943754 -1.76182 2.66197 -3.12628 -0.457415 5.96795 -5.96608 -4.41365 -11.2173 8.49105 -10.2881 -0.0 0.0 0.0 -0.0 0.0 0.0 -2.53215e-14 1.17129e-13 6.80837e-14 77.8067 6.44443 -3.30888 -12.2999 -5.66633 22.1946 -0.0145819 -3.4455 -0.484823 -4.80296e-10 1.37781e-09 -5.81202e-10 -8.30772e-10 2.38334e-09 -1.00472e-09 -4.80291e-10 1.37781e-09 -5.81208e-10 7.73091 5.47488 0.417314 -4.80295e-10 1.37781e-09 -5.81202e-10 2.90554 0.965183 0.102902 -4.80285e-10 1.37781e-09 -5.81195e-10 10.2786 0.731801 0.0259123 -4.80299e-10 1.37781e-09 -5.81183e-10 2.22167 -0.733487 -0.20892 -2.53703e-14 1.17138e-13 6.80341e-14 -80.6148 20.6531 4.03091 12.9577 -6.1434 -23.4795 0.0765689 -7.86986 1.11312 -6.50041e-10 6.24287e-11 7.54033e-10 -1.12789e-09 1.0499e-10 1.29986e-09 -6.50042e-10 6.24287e-11 7.5404e-10 -7.73091 5.47488 -0.417314 -6.50038e-10 6.24299e-11 7.54036e-10 -2.90554 0.965183 -0.102902 -6.50044e-10 6.24302e-11 7.54034e-10 -10.2786 0.731801 -0.0259123 -6.50038e-10 6.24323e-11 7.54027e-10 -2.22167 -0.733487 0.20892 -2.03217e-16 0.0 -3.88251e-19 1.52602 -10.3035 -2.69767 -0.124235 25.5152 0.459583 -5.6513 -7.92202 -22.2549 2.03217e-16 0.0 3.88251e-19 1.12566 -12.1658 0.845759 0.113108 25.7177 -0.385037 3.34941 -6.61564 14.8013
-0.808101 83.5815 -169.63 -2.0339 3.0523 2.2798 1.17416 0.997876 -1.87062 2.77746 -3.3538 -0.488119 6.37767 -6.36486 -4.6909 -11.8838 9.06921 -10.963 -0.0 0.0 0.0 -0.0 0.0 0.0 -3.41768e-14 9.91633e-14 6.06965e-14 83.3592 6.94464 -3.56936 -13.0073 -5.99749 23.7843 -0.0179398 -3.70153 -0.520996 -2.42271e-10 1.14916e-09 -4.67863e-10 -4.19452e-10 1.9882e-09 -8.08664e-10 -2.42266e-10 1.14916e-09 -4.67867e-10 7.73091 5.47488 0.417314 -2.4227e-10 1.14916e-09 -4.67861e-10 2.90554 0.965183 0.102902 -2.42262e-10 1.14916e-09 -4.67856e-10 10.2786 0.731801 0.0259123 -2.42275e-10 1.14916e-09 -4.67843e-10 2.22167 -0.733487 -0.20892 -3.424e-14 9.91713e-14 6.05901e-14 -86.3771 22.0805 4.41231 13.6765 -6.48823 -25.1436 0.0936991 -8.42812 1.19377 -3.90771e-10 1.12206e-10 6.89629e-10 -6.79577e-10 1.90861e-10 1.19008e-09 -3.90772e-10 1.12206e-10 6.89634e-10 -7.73091 5.47488 -0.417314 -3.90769e-10 1.12208e-10 6.89631e-10 -2.90554 0.965183 -0.102902 -3.90773e-10 1.12208e-10 6.8963e-10 -10.2786 0.731801 -0.0259123 -3.90768e-10 1.1221e-10 6.89623e-10 -2.22167 -0.733487 0.20892 -2.03217e-16 0.0 -3.88251e-19 1.64046 -10.7985 -2.84384 -0.151823 27.2972 0.503279 -6.3273 -8.56744 -23.8603 2.03217e-16 0.0 3.88251e-19 1.30332 -12.7701 0.887145 0.13679 27.5067 -0.423108 3.75722 -7.26147 15.946
